PathFileType	4	(X/Y/Z)	c:/Users/goper/Files/vsCode/490R/osim_files/C12/C12_Slow_01.trc
DataRate	CameraRate	NumFrames	NumMarkers	Units                	OrigDataRate	OrigDataStartFrame	OrigNumFrames
120.00	120.00	5	36	mm	120.0	1127	1287
                Frame#	Time	LPSIS			LASIS			LTH1			LTH2			LTH3			LTH4			LLFE			LMFE			LSH1			LSH2			LSH3			LSH4			LLMAL			LMMAL			LCAL			LMTP5			LTOE			LMTP1			RPSIS			RASIS			RTH1			RTH2			RTH3			RTH4			RLFE			RMFE			RSH1			RSH2			RSH3			RSH4			RLMAL			RMMAL			RCAL			RMTP1			RTOE			RMTP5		
		X1	Y1	Z1	X2	Y2	Z2	X3	Y3	Z3	X4	Y4	Z4	X5	Y5	Z5	X6	Y6	Z6	X7	Y7	Z7	X8	Y8	Z8	X9	Y9	Z9	X10	Y10	Z10	X11	Y11	Z11	X12	Y12	Z12	X13	Y13	Z13	X14	Y14	Z14	X15	Y15	Z15	X16	Y16	Z16	X17	Y17	Z17	X18	Y18	Z18	X19	Y19	Z19	X20	Y20	Z20	X21	Y21	Z21	X22	Y22	Z22	X23	Y23	Z23	X24	Y24	Z24	X25	Y25	Z25	X26	Y26	Z26	X27	Y27	Z27	X28	Y28	Z28	X29	Y29	Z29	X30	Y30	Z30	X31	Y31	Z31	X32	Y32	Z32	X33	Y33	Z33	X34	Y34	Z34	X35	Y35	Z35	X36	Y36	Z36

1127	9.38333	-3822.27808	1095.26404	390.30920	-4001.89380	1050.30554	453.95038	0.00000	0.00000	0.00000	-3947.00391	731.49060	530.24939	-3996.21069	790.45966	544.40112	-4001.79736	744.95074	545.14075	-4030.88623	565.85156	532.91394	-4071.60791	549.31891	412.70880	-3936.29346	523.12561	529.56842	-3905.02344	487.28931	533.27533	-3980.54077	480.70932	541.72589	-3942.43433	450.48981	539.85638	-3732.60522	252.38106	472.33405	-3765.41382	243.89922	401.72836	0.00000	0.00000	0.00000	-3759.75317	105.12398	499.84909	-3834.48364	91.28119	449.09808	-3802.71753	94.28622	399.40399	0.00000	0.00000	0.00000	-4001.26562	1061.30908	197.67365	-3920.61450	769.54724	151.11050	0.00000	0.00000	0.00000	0.00000	0.00000	0.00000	0.00000	0.00000	0.00000	-3951.46533	547.72437	207.59242	-3957.53760	554.75061	339.72537	-3883.27930	454.90509	192.14986	-3879.79590	412.45465	187.55833	-3946.02002	445.13611	196.20908	-3937.41309	403.09998	192.00772	-3867.59692	124.37984	247.86891	-3891.32935	137.31250	330.34528	-3795.67041	93.06207	289.33054	-4010.58691	56.71825	327.53650	-4053.92676	74.82774	294.51190	-4015.79736	52.00642	221.03003
1128	9.39167	-3831.34888	1096.21094	390.50400	-4010.82251	1051.53613	453.22427	0.00000	0.00000	0.00000	-3959.51465	733.20374	530.47009	-4008.00000	792.82568	544.11334	-4014.19702	746.97418	545.31879	-4045.47021	568.50592	532.30231	-4083.79443	552.87872	412.29031	-3951.67969	523.00720	528.75751	-3921.60400	486.10101	532.56873	-3997.56348	481.71237	540.76965	-3959.94409	450.55325	539.10089	-3756.55591	245.29874	471.89621	-3789.68091	237.76161	401.31186	0.00000	0.00000	0.00000	-3791.41943	100.42202	501.57306	-3866.92212	89.90081	450.97476	-3835.02222	90.40416	401.22067	0.00000	0.00000	0.00000	-4009.63745	1062.33752	197.10956	-3925.99854	770.51514	151.20145	0.00000	0.00000	0.00000	0.00000	0.00000	0.00000	0.00000	0.00000	0.00000	-3952.98145	548.32861	207.70613	-3959.45337	555.31372	339.98557	-3884.53076	455.73633	192.30284	-3881.08838	413.51535	187.64728	-3947.26270	445.74234	196.40430	-3938.50708	403.78339	192.17021	-3867.90015	125.10621	247.75539	-3891.90552	137.96523	330.30029	-3791.83765	95.64872	289.02289	-4010.76660	56.72165	327.43546	-4054.16943	74.69675	294.42932	-4015.86157	51.92529	220.97221
1129	9.40000	-3839.86548	1097.03333	390.71503	-4019.61401	1052.54395	452.52902	0.00000	0.00000	0.00000	-3971.90796	734.70984	530.76422	-4019.59546	794.98132	543.80383	-4026.56323	749.37366	545.21252	-4059.66748	570.82031	531.68207	-4099.92383	556.20477	411.62689	-3966.89160	522.28412	528.10278	-3937.97583	484.44284	531.98468	-4014.29688	482.06622	539.92169	-3977.56372	450.02948	538.40625	-3780.94580	237.83427	471.54013	-3814.49390	231.19122	400.98633	0.00000	0.00000	0.00000	-3823.40479	95.81253	503.27087	-3899.47437	88.50014	452.95123	-3867.49902	86.46959	403.11252	0.00000	0.00000	0.00000	-4018.00366	1063.28345	196.61673	-3931.41943	771.45673	151.21605	0.00000	0.00000	0.00000	0.00000	0.00000	0.00000	0.00000	0.00000	0.00000	-3954.25171	548.88416	207.85023	-3961.17334	555.90985	340.21555	-3885.93555	456.61484	192.38194	-3882.19409	414.17993	187.77800	-3948.48779	446.33118	196.67554	-3939.72437	404.53571	192.47491	-3868.40381	125.82903	247.75861	-3892.34399	138.53891	330.25763	-3792.38940	96.63677	289.09891	-4010.93530	56.68824	327.32568	-4054.42407	74.60706	294.36441	-4015.95093	51.88696	220.94244
1130	9.40833	-3848.76904	1097.67322	390.98944	-4028.46680	1053.48816	451.87286	0.00000	0.00000	0.00000	-3984.13770	736.16187	531.07458	-4030.97607	796.88208	543.50226	-4038.59424	751.48761	544.98285	-4073.61182	572.91748	530.69995	-4113.38477	558.98029	410.84329	-3982.06152	521.23163	527.51495	-3954.49438	482.35443	531.50031	-4029.38770	483.28317	538.30737	-3995.57812	449.92609	537.77094	-3805.69434	230.06094	471.24698	-3839.65479	224.27415	400.69379	0.00000	0.00000	0.00000	-3855.86499	91.42385	505.02701	-3932.08154	87.08526	454.86819	-3900.28467	82.63816	405.01181	0.00000	0.00000	0.00000	-4026.35913	1064.11804	196.20874	-3936.83496	772.53705	151.20325	0.00000	0.00000	0.00000	0.00000	0.00000	0.00000	0.00000	0.00000	0.00000	-3955.36157	549.45612	208.00800	-3962.89136	556.74127	340.51767	-3887.28003	457.39093	192.44124	-3883.34497	414.93832	187.87718	-3949.71460	446.93436	196.99854	-3940.80933	405.19070	192.80232	-3868.72266	126.53339	247.71947	-3892.82300	139.14252	330.17096	-3792.76562	97.48599	289.13278	-4011.04443	56.65588	327.23343	-4054.63574	74.52304	294.29092	-4015.96802	51.79364	220.86688
1131	9.41667	-3857.44897	1098.15308	391.17047	-4037.21802	1054.27954	451.34491	0.00000	0.00000	0.00000	-3995.96777	737.43542	531.32190	-4042.37573	798.64850	543.28247	-4050.47632	753.31238	544.82465	-4087.32227	574.83447	529.66046	-4129.74512	563.93140	409.65509	-3996.98560	519.42358	527.04340	-3971.04932	479.76273	531.17206	-4045.66138	483.12057	537.46777	-4013.18018	448.68909	536.94202	-3831.22974	222.01854	471.22900	-3865.18359	217.04422	400.49640	0.00000	0.00000	0.00000	-3888.58472	86.96980	506.83762	-3964.85010	85.88638	456.71783	-3933.36694	79.02702	406.95407	0.00000	0.00000	0.00000	-4034.72192	1064.84680	195.87709	-3941.99243	773.33569	151.37410	0.00000	0.00000	0.00000	0.00000	0.00000	0.00000	0.00000	0.00000	0.00000	-3956.38501	550.05103	208.17186	-3964.72632	557.86499	341.06949	-3888.40576	458.10309	192.42679	-3884.73804	415.83725	187.83752	-3950.80298	447.64383	197.35944	-3941.83594	405.81509	193.02339	-3869.13989	127.30008	247.63892	-3893.29541	139.71976	330.04141	-3793.31421	98.49820	289.02972	-4011.13623	56.65076	327.16782	-4054.87476	74.44193	294.19852	-4015.97607	51.67038	220.75475
